  0
SECTION
  2
HEADER
  9
$ACADVER
  1
AC1014
  9
$HANDSEED
  5
FFFF
  9
$MEASUREMENT
 70
     1
  0
ENDSEC
  0
SECTION
  2
TABLES
  0
TABLE
  2
VPORT
  5
8
330
0
100
AcDbSymbolTable
 70
     4
  0
VPORT
  5
2E
330
8
100
AcDbSymbolTableRecord
100
AcDbViewportTableRecord
  2
*ACTIVE
 70
     0
 10
0.0
 20
0.0
 11
1.0
 21
1.0
 12
210.0
 22
148.5
 13
0.0
 23
0.0
 14
10.0
 24
10.0
 15
10.0
 25
10.0
 16
0.0
 26
0.0
 36
1.0
 17
0.0
 27
0.0
 37
0.0
 40
341.0
 41
1.24
 42
50.0
 43
0.0
 44
0.0
 50
0.0
 51
0.0
 71
     0
 72
   100
 73
     1
 74
     3
 75
     0
 76
     0
 77
     0
 78
     0
  0
ENDTAB
  0
TABLE
  2
LTYPE
  5
5
330
0
100
AcDbSymbolTable
 70
     1
  0
LTYPE
  5
14
330
5
100
AcDbSymbolTableRecord
100
AcDbLinetypeTableRecord
  2
BYBLOCK
 70
     0
  3

 72
    65
 73
     0
 40
0.0
  0
LTYPE
  5
15
330
5
100
AcDbSymbolTableRecord
100
AcDbLinetypeTableRecord
  2
BYLAYER
 70
     0
  3

 72
    65
 73
     0
 40
0.0
  0
LTYPE
  5
16
330
5
100
AcDbSymbolTableRecord
100
AcDbLinetypeTableRecord
  2
CONTINUOUS
 70
     0
  3
Solid line
 72
    65
 73
     0
 40
0.0
  0
ENDTAB
  0
TABLE
  2
LAYER
  5
2
100
AcDbSymbolTable
 70
2
  0
LAYER
  5
50
100
AcDbSymbolTableRecord
100
AcDbLayerTableRecord
  2
0
 70
0
  6
CONTINUOUS
  0
LAYER
  5
51
100
AcDbSymbolTableRecord
100
AcDbLayerTableRecord
  2
Layer_1
 70
0
  6
CONTINUOUS
  0
ENDTAB
  0
TABLE
  2
STYLE
  5
3
330
0
100
AcDbSymbolTable
 70
     1
  0
STYLE
  5
11
330
3
100
AcDbSymbolTableRecord
100
AcDbTextStyleTableRecord
  2
STANDARD
 70
     0
 40
0.0
 41
1.0
 50
0.0
 71
     0
 42
2.5
  3
txt
  4

  0
ENDTAB
  0
TABLE
  2
VIEW
  5
6
330
0
100
AcDbSymbolTable
 70
     0
  0
ENDTAB
  0
TABLE
  2
UCS
  5
7
330
0
100
AcDbSymbolTable
 70
     0
  0
ENDTAB
  0
TABLE
  2
APPID
  5
9
330
0
100
AcDbSymbolTable
 70
     2
  0
APPID
  5
12
330
9
100
AcDbSymbolTableRecord
100
AcDbRegAppTableRecord
  2
ACAD
 70
     0
  0
ENDTAB
  0
TABLE
  2
DIMSTYLE
  5
A
330
0
100
AcDbSymbolTable
 70
     1
  0
DIMSTYLE
105
27
330
A
100
AcDbSymbolTableRecord
100
AcDbDimStyleTableRecord
  2
ISO-25
 70
     0
  3

  4

  5

  6

  7

 40
1.0
 41
2.5
 42
0.625
 43
3.75
 44
1.25
 45
0.0
 46
0.0
 47
0.0
 48
0.0
140
2.5
141
2.5
142
0.0
143
0.03937007874016
144
1.0
145
0.0
146
1.0
147
0.625
 71
     0
 72
     0
 73
     0
 74
     0
 75
     0
 76
     0
 77
     1
 78
     8
170
     0
171
     3
172
     1
173
     0
174
     0
175
     0
176
     0
177
     0
178
     0
270
     2
271
     2
272
     2
273
     2
274
     3
340
11
275
     0
280
     0
281
     0
282
     0
283
     0
284
     8
285
     0
286
     0
287
     3
288
     0
  0
ENDTAB
  0
TABLE
  2
BLOCK_RECORD
  5
1
330
0
100
AcDbSymbolTable
 70
     1
  0
BLOCK_RECORD
  5
1F
330
1
100
AcDbSymbolTableRecord
100
AcDbBlockTableRecord
  2
*MODEL_SPACE
  0
BLOCK_RECORD
  5
1B
330
1
100
AcDbSymbolTableRecord
100
AcDbBlockTableRecord
  2
*PAPER_SPACE
  0
ENDTAB
  0
ENDSEC
  0
SECTION
  2
BLOCKS
  0
BLOCK
  5
20
330
1F
100
AcDbEntity
  8
0
100
AcDbBlockBegin
  2
*MODEL_SPACE
 70
     0
 10
0.0
 20
0.0
 30
0.0
  3
*MODEL_SPACE
  1

  0
ENDBLK
  5
21
330
1F
100
AcDbEntity
  8
0
100
AcDbBlockEnd
  0
BLOCK
  5
1C
330
1B
100
AcDbEntity
 67
     1
  8
0
100
AcDbBlockBegin
  2
*PAPER_SPACE
  1

  0
ENDBLK
  5
1D
330
1B
100
AcDbEntity
 67
     1
  8
0
100
AcDbBlockEnd
  0
ENDSEC
  0
SECTION
  2
ENTITIES
  0
SPLINE
  5
100
100
AcDbEntity
  8
Layer_1
 62
5
100
AcDbSpline
 70
8
 71
3
 72
8
 73
4
 74
0
 40
0
 40
0
 40
0
 40
0
 40
1
 40
1
 40
1
 40
1
 10
127.813271
 20
206.378652
 30
0.0
 10
127.813271
 20
207.067632
 30
0.0
 10
128.372777
 20
207.627142
 30
0.0
 10
129.061752
 20
207.627142
 30
0.0
  0
SPLINE
  5
101
100
AcDbEntity
  8
Layer_1
 62
5
100
AcDbSpline
 70
8
 71
3
 72
8
 73
4
 74
0
 40
0
 40
0
 40
0
 40
0
 40
1
 40
1
 40
1
 40
1
 10
129.061752
 20
207.627142
 30
0.0
 10
129.750727
 20
207.627142
 30
0.0
 10
130.309881
 20
207.067632
 30
0.0
 10
130.309881
 20
206.378652
 30
0.0
  0
SPLINE
  5
102
100
AcDbEntity
  8
Layer_1
 62
5
100
AcDbSpline
 70
8
 71
3
 72
8
 73
4
 74
0
 40
0
 40
0
 40
0
 40
0
 40
1
 40
1
 40
1
 40
1
 10
130.309881
 20
206.378652
 30
0.0
 10
130.309881
 20
205.689682
 30
0.0
 10
129.750727
 20
205.130172
 30
0.0
 10
129.061752
 20
205.130172
 30
0.0
  0
SPLINE
  5
103
100
AcDbEntity
  8
Layer_1
 62
5
100
AcDbSpline
 70
8
 71
3
 72
8
 73
4
 74
0
 40
0
 40
0
 40
0
 40
0
 40
1
 40
1
 40
1
 40
1
 10
129.061752
 20
205.130172
 30
0.0
 10
128.372777
 20
205.130172
 30
0.0
 10
127.813271
 20
205.689682
 30
0.0
 10
127.813271
 20
206.378652
 30
0.0
  0
LINE
  5
104
100
AcDbEntity
  8
Layer_1
 62
5
100
AcDbLine
 10
127.813271
 20
206.378652
 30
0.0
 11
127.813271
 21
206.378652
 31
0.0
  0
SPLINE
  5
105
100
AcDbEntity
  8
Layer_1
 62
5
100
AcDbSpline
 70
8
 71
3
 72
8
 73
4
 74
0
 40
0
 40
0
 40
0
 40
0
 40
1
 40
1
 40
1
 40
1
 10
102.066253
 20
267.752254
 30
0.0
 10
102.066253
 20
268.441225
 30
0.0
 10
102.625760
 20
269.000735
 30
0.0
 10
103.314735
 20
269.000735
 30
0.0
  0
SPLINE
  5
106
100
AcDbEntity
  8
Layer_1
 62
5
100
AcDbSpline
 70
8
 71
3
 72
8
 73
4
 74
0
 40
0
 40
0
 40
0
 40
0
 40
1
 40
1
 40
1
 40
1
 10
103.314735
 20
269.000735
 30
0.0
 10
104.003710
 20
269.000735
 30
0.0
 10
104.562863
 20
268.441225
 30
0.0
 10
104.562863
 20
267.752254
 30
0.0
  0
SPLINE
  5
107
100
AcDbEntity
  8
Layer_1
 62
5
100
AcDbSpline
 70
8
 71
3
 72
8
 73
4
 74
0
 40
0
 40
0
 40
0
 40
0
 40
1
 40
1
 40
1
 40
1
 10
104.562863
 20
267.752254
 30
0.0
 10
104.562863
 20
267.063274
 30
0.0
 10
104.003710
 20
266.503774
 30
0.0
 10
103.314735
 20
266.503774
 30
0.0
  0
SPLINE
  5
108
100
AcDbEntity
  8
Layer_1
 62
5
100
AcDbSpline
 70
8
 71
3
 72
8
 73
4
 74
0
 40
0
 40
0
 40
0
 40
0
 40
1
 40
1
 40
1
 40
1
 10
103.314735
 20
266.503774
 30
0.0
 10
102.625760
 20
266.503774
 30
0.0
 10
102.066253
 20
267.063274
 30
0.0
 10
102.066253
 20
267.752254
 30
0.0
  0
LINE
  5
109
100
AcDbEntity
  8
Layer_1
 62
5
100
AcDbLine
 10
102.066253
 20
267.752254
 30
0.0
 11
102.066253
 21
267.752254
 31
0.0
  0
SPLINE
  5
10a
100
AcDbEntity
  8
Layer_1
 62
5
100
AcDbSpline
 70
8
 71
3
 72
8
 73
4
 74
0
 40
0
 40
0
 40
0
 40
0
 40
1
 40
1
 40
1
 40
1
 10
102.064983
 20
229.840711
 30
0.0
 10
102.064983
 20
230.529681
 30
0.0
 10
102.624490
 20
231.089191
 30
0.0
 10
103.313465
 20
231.089191
 30
0.0
  0
SPLINE
  5
10b
100
AcDbEntity
  8
Layer_1
 62
5
100
AcDbSpline
 70
8
 71
3
 72
8
 73
4
 74
0
 40
0
 40
0
 40
0
 40
0
 40
1
 40
1
 40
1
 40
1
 10
103.313465
 20
231.089191
 30
0.0
 10
104.002440
 20
231.089191
 30
0.0
 10
104.561593
 20
230.529681
 30
0.0
 10
104.561593
 20
229.840711
 30
0.0
  0
SPLINE
  5
10c
100
AcDbEntity
  8
Layer_1
 62
5
100
AcDbSpline
 70
8
 71
3
 72
8
 73
4
 74
0
 40
0
 40
0
 40
0
 40
0
 40
1
 40
1
 40
1
 40
1
 10
104.561593
 20
229.840711
 30
0.0
 10
104.561593
 20
229.151730
 30
0.0
 10
104.002440
 20
228.592230
 30
0.0
 10
103.313465
 20
228.592230
 30
0.0
  0
SPLINE
  5
10d
100
AcDbEntity
  8
Layer_1
 62
5
100
AcDbSpline
 70
8
 71
3
 72
8
 73
4
 74
0
 40
0
 40
0
 40
0
 40
0
 40
1
 40
1
 40
1
 40
1
 10
103.313465
 20
228.592230
 30
0.0
 10
102.624490
 20
228.592230
 30
0.0
 10
102.064983
 20
229.151730
 30
0.0
 10
102.064983
 20
229.840711
 30
0.0
  0
LINE
  5
10e
100
AcDbEntity
  8
Layer_1
 62
5
100
AcDbLine
 10
102.064983
 20
229.840711
 30
0.0
 11
102.064983
 21
229.840711
 31
0.0
  0
SPLINE
  5
10f
100
AcDbEntity
  8
Layer_1
 62
5
100
AcDbSpline
 70
8
 71
3
 72
8
 73
4
 74
0
 40
0
 40
0
 40
0
 40
0
 40
1
 40
1
 40
1
 40
1
 10
25.556215
 20
222.830948
 30
0.0
 10
25.556215
 20
223.519928
 30
0.0
 10
26.115726
 20
224.079428
 30
0.0
 10
26.804696
 20
224.079428
 30
0.0
  0
SPLINE
  5
110
100
AcDbEntity
  8
Layer_1
 62
5
100
AcDbSpline
 70
8
 71
3
 72
8
 73
4
 74
0
 40
0
 40
0
 40
0
 40
0
 40
1
 40
1
 40
1
 40
1
 10
26.804696
 20
224.079428
 30
0.0
 10
27.493676
 20
224.079428
 30
0.0
 10
28.052826
 20
223.519928
 30
0.0
 10
28.052826
 20
222.830948
 30
0.0
  0
SPLINE
  5
111
100
AcDbEntity
  8
Layer_1
 62
5
100
AcDbSpline
 70
8
 71
3
 72
8
 73
4
 74
0
 40
0
 40
0
 40
0
 40
0
 40
1
 40
1
 40
1
 40
1
 10
28.052826
 20
222.830948
 30
0.0
 10
28.052826
 20
222.141978
 30
0.0
 10
27.493676
 20
221.582468
 30
0.0
 10
26.804696
 20
221.582468
 30
0.0
  0
SPLINE
  5
112
100
AcDbEntity
  8
Layer_1
 62
5
100
AcDbSpline
 70
8
 71
3
 72
8
 73
4
 74
0
 40
0
 40
0
 40
0
 40
0
 40
1
 40
1
 40
1
 40
1
 10
26.804696
 20
221.582468
 30
0.0
 10
26.115726
 20
221.582468
 30
0.0
 10
25.556215
 20
222.141978
 30
0.0
 10
25.556215
 20
222.830948
 30
0.0
  0
LINE
  5
113
100
AcDbEntity
  8
Layer_1
 62
5
100
AcDbLine
 10
25.556215
 20
222.830948
 30
0.0
 11
25.556215
 21
222.830948
 31
0.0
  0
SPLINE
  5
114
100
AcDbEntity
  8
Layer_1
 62
5
100
AcDbSpline
 70
8
 71
3
 72
8
 73
4
 74
0
 40
0
 40
0
 40
0
 40
0
 40
1
 40
1
 40
1
 40
1
 10
25.566505
 20
261.141902
 30
0.0
 10
25.566505
 20
261.830872
 30
0.0
 10
26.126016
 20
262.390382
 30
0.0
 10
26.814986
 20
262.390382
 30
0.0
  0
SPLINE
  5
115
100
AcDbEntity
  8
Layer_1
 62
5
100
AcDbSpline
 70
8
 71
3
 72
8
 73
4
 74
0
 40
0
 40
0
 40
0
 40
0
 40
1
 40
1
 40
1
 40
1
 10
26.814986
 20
262.390382
 30
0.0
 10
27.503966
 20
262.390382
 30
0.0
 10
28.063116
 20
261.830872
 30
0.0
 10
28.063116
 20
261.141902
 30
0.0
  0
SPLINE
  5
116
100
AcDbEntity
  8
Layer_1
 62
5
100
AcDbSpline
 70
8
 71
3
 72
8
 73
4
 74
0
 40
0
 40
0
 40
0
 40
0
 40
1
 40
1
 40
1
 40
1
 10
28.063116
 20
261.141902
 30
0.0
 10
28.063116
 20
260.452922
 30
0.0
 10
27.503966
 20
259.893422
 30
0.0
 10
26.814986
 20
259.893422
 30
0.0
  0
SPLINE
  5
117
100
AcDbEntity
  8
Layer_1
 62
5
100
AcDbSpline
 70
8
 71
3
 72
8
 73
4
 74
0
 40
0
 40
0
 40
0
 40
0
 40
1
 40
1
 40
1
 40
1
 10
26.814986
 20
259.893422
 30
0.0
 10
26.126016
 20
259.893422
 30
0.0
 10
25.566505
 20
260.452922
 30
0.0
 10
25.566505
 20
261.141902
 30
0.0
  0
LINE
  5
118
100
AcDbEntity
  8
Layer_1
 62
5
100
AcDbLine
 10
25.566505
 20
261.141902
 30
0.0
 11
25.566505
 21
261.141902
 31
0.0
  0
LINE
  5
119
100
AcDbEntity
  8
Layer_1
 62
5
100
AcDbLine
 10
121.618767
 20
286.610987
 30
0.0
 11
101.512358
 21
286.612987
 31
0.0
  0
LINE
  5
11a
100
AcDbEntity
  8
Layer_1
 62
5
100
AcDbLine
 10
101.512358
 20
286.612987
 30
0.0
 11
101.512623
 21
289.110128
 31
0.0
  0
LINE
  5
11b
100
AcDbEntity
  8
Layer_1
 62
5
100
AcDbLine
 10
101.512623
 20
289.110128
 30
0.0
 11
82.513119
 21
289.112128
 31
0.0
  0
LINE
  5
11c
100
AcDbEntity
  8
Layer_1
 62
5
100
AcDbLine
 10
82.513119
 20
289.112128
 30
0.0
 11
82.513384
 21
291.611829
 31
0.0
  0
LINE
  5
11d
100
AcDbEntity
  8
Layer_1
 62
5
100
AcDbLine
 10
82.513384
 20
291.611829
 30
0.0
 11
64.512398
 21
291.611829
 31
0.0
  0
LINE
  5
11e
100
AcDbEntity
  8
Layer_1
 62
5
100
AcDbLine
 10
64.512398
 20
291.611829
 30
0.0
 11
64.512398
 21
289.109948
 31
0.0
  0
LINE
  5
11f
100
AcDbEntity
  8
Layer_1
 62
5
100
AcDbLine
 10
64.512398
 20
289.109948
 30
0.0
 11
45.513191
 21
289.109948
 31
0.0
  0
LINE
  5
120
100
AcDbEntity
  8
Layer_1
 62
5
100
AcDbLine
 10
45.513191
 20
289.109948
 30
0.0
 11
45.513041
 21
280.110425
 31
0.0
  0
LINE
  5
121
100
AcDbEntity
  8
Layer_1
 62
5
100
AcDbLine
 10
45.513041
 20
280.110425
 30
0.0
 11
7.512377
 21
280.110425
 31
0.0
  0
LINE
  5
122
100
AcDbEntity
  8
Layer_1
 62
5
100
AcDbLine
 10
7.512377
 20
280.110425
 30
0.0
 11
7.512377
 21
204.111357
 31
0.0
  0
LINE
  5
123
100
AcDbEntity
  8
Layer_1
 62
5
100
AcDbLine
 10
7.512377
 20
204.111357
 30
0.0
 11
45.513331
 21
194.111374
 31
0.0
  0
LINE
  5
124
100
AcDbEntity
  8
Layer_1
 62
5
100
AcDbLine
 10
45.513331
 20
194.111374
 30
0.0
 11
102.013108
 21
194.111374
 31
0.0
  0
LINE
  5
125
100
AcDbEntity
  8
Layer_1
 62
5
100
AcDbLine
 10
102.013108
 20
194.111374
 30
0.0
 11
119.656661
 21
186.110441
 31
0.0
  0
LINE
  5
126
100
AcDbEntity
  8
Layer_1
 62
5
100
AcDbLine
 10
119.656661
 20
186.110441
 30
0.0
 11
136.656379
 21
176.113107
 31
0.0
  0
LINE
  5
127
100
AcDbEntity
  8
Layer_1
 62
5
100
AcDbLine
 10
136.656379
 20
176.113107
 30
0.0
 11
151.154646
 21
201.111686
 31
0.0
  0
LINE
  5
128
100
AcDbEntity
  8
Layer_1
 62
5
100
AcDbLine
 10
151.154646
 20
201.111686
 30
0.0
 11
142.655837
 21
206.112928
 31
0.0
  0
LINE
  5
129
100
AcDbEntity
  8
Layer_1
 62
5
100
AcDbLine
 10
142.655837
 20
206.112928
 30
0.0
 11
142.656368
 21
229.158246
 31
0.0
  0
LINE
  5
12a
100
AcDbEntity
  8
Layer_1
 62
5
100
AcDbLine
 10
142.656368
 20
229.158246
 30
0.0
 11
142.467336
 21
286.583017
 31
0.0
  0
LINE
  5
12b
100
AcDbEntity
  8
Layer_1
 62
5
100
AcDbLine
 10
142.467336
 20
286.583017
 30
0.0
 11
121.618767
 21
286.610987
 31
0.0
  0
LINE
  5
12c
100
AcDbEntity
  8
Layer_1
 62
5
100
AcDbLine
 10
121.066293
 20
164.063288
 30
0.0
 11
100.959884
 21
164.065488
 31
0.0
  0
LINE
  5
12d
100
AcDbEntity
  8
Layer_1
 62
5
100
AcDbLine
 10
100.959884
 20
164.065488
 30
0.0
 11
100.960149
 21
166.562635
 31
0.0
  0
LINE
  5
12e
100
AcDbEntity
  8
Layer_1
 62
5
100
AcDbLine
 10
100.960149
 20
166.562635
 30
0.0
 11
81.960645
 21
166.564835
 31
0.0
  0
LINE
  5
12f
100
AcDbEntity
  8
Layer_1
 62
5
100
AcDbLine
 10
81.960645
 20
166.564835
 30
0.0
 11
81.960910
 21
169.064532
 31
0.0
  0
LINE
  5
130
100
AcDbEntity
  8
Layer_1
 62
5
100
AcDbLine
 10
81.960910
 20
169.064532
 30
0.0
 11
63.959923
 21
169.064532
 31
0.0
  0
LINE
  5
131
100
AcDbEntity
  8
Layer_1
 62
5
100
AcDbLine
 10
63.959923
 20
169.064532
 30
0.0
 11
63.959923
 21
166.562650
 31
0.0
  0
LINE
  5
132
100
AcDbEntity
  8
Layer_1
 62
5
100
AcDbLine
 10
63.959923
 20
166.562650
 30
0.0
 11
44.960714
 21
166.562650
 31
0.0
  0
LINE
  5
133
100
AcDbEntity
  8
Layer_1
 62
5
100
AcDbLine
 10
44.960714
 20
166.562650
 30
0.0
 11
44.960564
 21
157.563126
 31
0.0
  0
LINE
  5
134
100
AcDbEntity
  8
Layer_1
 62
5
100
AcDbLine
 10
44.960564
 20
157.563126
 30
0.0
 11
6.959900
 21
157.563126
 31
0.0
  0
LINE
  5
135
100
AcDbEntity
  8
Layer_1
 62
5
100
AcDbLine
 10
6.959900
 20
157.563126
 30
0.0
 11
6.959900
 21
81.564059
 31
0.0
  0
LINE
  5
136
100
AcDbEntity
  8
Layer_1
 62
5
100
AcDbLine
 10
6.959900
 20
81.564059
 30
0.0
 11
44.960854
 21
71.564079
 31
0.0
  0
LINE
  5
137
100
AcDbEntity
  8
Layer_1
 62
5
100
AcDbLine
 10
44.960854
 20
71.564079
 30
0.0
 11
101.460634
 21
71.564079
 31
0.0
  0
LINE
  5
138
100
AcDbEntity
  8
Layer_1
 62
5
100
AcDbLine
 10
101.460634
 20
71.564079
 30
0.0
 11
118.961240
 21
63.563076
 31
0.0
  0
LINE
  5
139
100
AcDbEntity
  8
Layer_1
 62
5
100
AcDbLine
 10
118.961240
 20
63.563076
 30
0.0
 11
135.960959
 21
53.565742
 31
0.0
  0
LINE
  5
13a
100
AcDbEntity
  8
Layer_1
 62
5
100
AcDbLine
 10
135.960959
 20
53.565742
 30
0.0
 11
150.459227
 21
78.564328
 31
0.0
  0
LINE
  5
13b
100
AcDbEntity
  8
Layer_1
 62
5
100
AcDbLine
 10
150.459227
 20
78.564328
 30
0.0
 11
141.960417
 21
83.565572
 31
0.0
  0
LINE
  5
13c
100
AcDbEntity
  8
Layer_1
 62
5
100
AcDbLine
 10
141.960417
 20
83.565572
 30
0.0
 11
141.960949
 21
106.610887
 31
0.0
  0
LINE
  5
13d
100
AcDbEntity
  8
Layer_1
 62
5
100
AcDbLine
 10
141.960949
 20
106.610887
 30
0.0
 11
121.061628
 21
106.610887
 31
0.0
  0
LINE
  5
13e
100
AcDbEntity
  8
Layer_1
 62
5
100
AcDbLine
 10
121.061628
 20
106.610887
 30
0.0
 11
121.066293
 21
164.063288
 31
0.0
  0
LINE
  5
13f
100
AcDbEntity
  8
Layer_1
 62
5
100
AcDbLine
 10
118.188644
 20
161.616953
 30
0.0
 11
104.190752
 21
161.616953
 31
0.0
  0
LINE
  5
140
100
AcDbEntity
  8
Layer_1
 62
5
100
AcDbLine
 10
104.190752
 20
161.616953
 30
0.0
 11
104.190752
 21
147.616523
 31
0.0
  0
LINE
  5
141
100
AcDbEntity
  8
Layer_1
 62
5
100
AcDbLine
 10
104.190752
 20
147.616523
 30
0.0
 11
118.188644
 21
147.616523
 31
0.0
  0
LINE
  5
142
100
AcDbEntity
  8
Layer_1
 62
5
100
AcDbLine
 10
118.188644
 20
147.616523
 30
0.0
 11
118.188644
 21
161.616953
 31
0.0
  0
LINE
  5
143
100
AcDbEntity
  8
Layer_1
 62
5
100
AcDbLine
 10
99.186972
 20
164.116305
 30
0.0
 11
85.189080
 21
164.116305
 31
0.0
  0
LINE
  5
144
100
AcDbEntity
  8
Layer_1
 62
5
100
AcDbLine
 10
85.189080
 20
164.116305
 30
0.0
 11
85.189080
 21
150.115875
 31
0.0
  0
LINE
  5
145
100
AcDbEntity
  8
Layer_1
 62
5
100
AcDbLine
 10
85.189080
 20
150.115875
 30
0.0
 11
99.186972
 21
150.115875
 31
0.0
  0
LINE
  5
146
100
AcDbEntity
  8
Layer_1
 62
5
100
AcDbLine
 10
99.186972
 20
150.115875
 30
0.0
 11
99.186972
 21
164.116305
 31
0.0
  0
LINE
  5
147
100
AcDbEntity
  8
Layer_1
 62
5
100
AcDbLine
 10
80.190378
 20
166.605495
 30
0.0
 11
66.192486
 21
166.605495
 31
0.0
  0
LINE
  5
148
100
AcDbEntity
  8
Layer_1
 62
5
100
AcDbLine
 10
66.192486
 20
166.605495
 30
0.0
 11
66.192486
 21
152.605065
 31
0.0
  0
LINE
  5
149
100
AcDbEntity
  8
Layer_1
 62
5
100
AcDbLine
 10
66.192486
 20
152.605065
 30
0.0
 11
80.190378
 21
152.605065
 31
0.0
  0
LINE
  5
14a
100
AcDbEntity
  8
Layer_1
 62
5
100
AcDbLine
 10
80.190378
 20
152.605065
 30
0.0
 11
80.190378
 21
166.605495
 31
0.0
  0
LINE
  5
14b
100
AcDbEntity
  8
Layer_1
 62
5
100
AcDbLine
 10
61.191245
 20
164.116305
 30
0.0
 11
47.193355
 21
164.116305
 31
0.0
  0
LINE
  5
14c
100
AcDbEntity
  8
Layer_1
 62
5
100
AcDbLine
 10
47.193355
 20
164.116305
 30
0.0
 11
47.193355
 21
150.115875
 31
0.0
  0
LINE
  5
14d
100
AcDbEntity
  8
Layer_1
 62
5
100
AcDbLine
 10
47.193355
 20
150.115875
 30
0.0
 11
61.191245
 21
150.115875
 31
0.0
  0
LINE
  5
14e
100
AcDbEntity
  8
Layer_1
 62
5
100
AcDbLine
 10
61.191245
 20
150.115875
 30
0.0
 11
61.191245
 21
164.116305
 31
0.0
  0
LINE
  5
14f
100
AcDbEntity
  8
Layer_1
 62
5
100
AcDbLine
 10
42.187033
 20
155.117116
 30
0.0
 11
28.189148
 21
155.117116
 31
0.0
  0
LINE
  5
150
100
AcDbEntity
  8
Layer_1
 62
5
100
AcDbLine
 10
28.189148
 20
155.117116
 30
0.0
 11
28.189148
 21
141.116687
 31
0.0
  0
LINE
  5
151
100
AcDbEntity
  8
Layer_1
 62
5
100
AcDbLine
 10
28.189148
 20
141.116687
 30
0.0
 11
42.187033
 21
141.116687
 31
0.0
  0
LINE
  5
152
100
AcDbEntity
  8
Layer_1
 62
5
100
AcDbLine
 10
42.187033
 20
141.116687
 30
0.0
 11
42.187033
 21
155.117116
 31
0.0
  0
LINE
  5
153
100
AcDbEntity
  8
Layer_1
 62
5
100
AcDbLine
 10
23.190436
 20
155.117116
 30
0.0
 11
9.192551
 21
155.117116
 31
0.0
  0
LINE
  5
154
100
AcDbEntity
  8
Layer_1
 62
5
100
AcDbLine
 10
9.192551
 20
155.117116
 30
0.0
 11
9.192551
 21
141.116687
 31
0.0
  0
LINE
  5
155
100
AcDbEntity
  8
Layer_1
 62
5
100
AcDbLine
 10
9.192551
 20
141.116687
 30
0.0
 11
23.190436
 21
141.116687
 31
0.0
  0
LINE
  5
156
100
AcDbEntity
  8
Layer_1
 62
5
100
AcDbLine
 10
23.190436
 20
141.116687
 30
0.0
 11
23.190436
 21
155.117116
 31
0.0
  0
LINE
  5
157
100
AcDbEntity
  8
Layer_1
 62
5
100
AcDbLine
 10
23.190436
 20
136.217043
 30
0.0
 11
9.192551
 21
136.217043
 31
0.0
  0
LINE
  5
158
100
AcDbEntity
  8
Layer_1
 62
5
100
AcDbLine
 10
9.192551
 20
136.217043
 30
0.0
 11
9.192551
 21
122.216614
 31
0.0
  0
LINE
  5
159
100
AcDbEntity
  8
Layer_1
 62
5
100
AcDbLine
 10
9.192551
 20
122.216614
 30
0.0
 11
23.190436
 21
122.216614
 31
0.0
  0
LINE
  5
15a
100
AcDbEntity
  8
Layer_1
 62
5
100
AcDbLine
 10
23.190436
 20
122.216614
 30
0.0
 11
23.190436
 21
136.217043
 31
0.0
  0
LINE
  5
15b
100
AcDbEntity
  8
Layer_1
 62
5
100
AcDbLine
 10
42.189573
 20
136.217043
 30
0.0
 11
28.191688
 21
136.217043
 31
0.0
  0
LINE
  5
15c
100
AcDbEntity
  8
Layer_1
 62
5
100
AcDbLine
 10
28.191688
 20
136.217043
 30
0.0
 11
28.191688
 21
122.216614
 31
0.0
  0
LINE
  5
15d
100
AcDbEntity
  8
Layer_1
 62
5
100
AcDbLine
 10
28.191688
 20
122.216614
 30
0.0
 11
42.189573
 21
122.216614
 31
0.0
  0
LINE
  5
15e
100
AcDbEntity
  8
Layer_1
 62
5
100
AcDbLine
 10
42.189573
 20
122.216614
 30
0.0
 11
42.189573
 21
136.217043
 31
0.0
  0
LINE
  5
15f
100
AcDbEntity
  8
Layer_1
 62
5
100
AcDbLine
 10
23.190436
 20
117.017252
 30
0.0
 11
9.192551
 21
117.017252
 31
0.0
  0
LINE
  5
160
100
AcDbEntity
  8
Layer_1
 62
5
100
AcDbLine
 10
9.192551
 20
117.017252
 30
0.0
 11
9.192551
 21
103.016823
 31
0.0
  0
LINE
  5
161
100
AcDbEntity
  8
Layer_1
 62
5
100
AcDbLine
 10
9.192551
 20
103.016823
 30
0.0
 11
23.190436
 21
103.016823
 31
0.0
  0
LINE
  5
162
100
AcDbEntity
  8
Layer_1
 62
5
100
AcDbLine
 10
23.190436
 20
103.016823
 30
0.0
 11
23.190436
 21
117.017252
 31
0.0
  0
LINE
  5
163
100
AcDbEntity
  8
Layer_1
 62
5
100
AcDbLine
 10
42.189573
 20
117.017252
 30
0.0
 11
28.191688
 21
117.017252
 31
0.0
  0
LINE
  5
164
100
AcDbEntity
  8
Layer_1
 62
5
100
AcDbLine
 10
28.191688
 20
117.017252
 30
0.0
 11
28.191688
 21
103.016823
 31
0.0
  0
LINE
  5
165
100
AcDbEntity
  8
Layer_1
 62
5
100
AcDbLine
 10
28.191688
 20
103.016823
 30
0.0
 11
42.189573
 21
103.016823
 31
0.0
  0
LINE
  5
166
100
AcDbEntity
  8
Layer_1
 62
5
100
AcDbLine
 10
42.189573
 20
103.016823
 30
0.0
 11
42.189573
 21
117.017252
 31
0.0
  0
LINE
  5
167
100
AcDbEntity
  8
Layer_1
 62
5
100
AcDbLine
 10
23.139646
 20
98.015580
 30
0.0
 11
9.141761
 21
98.015580
 31
0.0
  0
LINE
  5
168
100
AcDbEntity
  8
Layer_1
 62
5
100
AcDbLine
 10
9.141761
 20
98.015580
 30
0.0
 11
9.141761
 21
84.015151
 31
0.0
  0
LINE
  5
169
100
AcDbEntity
  8
Layer_1
 62
5
100
AcDbLine
 10
9.141761
 20
84.015151
 30
0.0
 11
23.139646
 21
84.015151
 31
0.0
  0
LINE
  5
16a
100
AcDbEntity
  8
Layer_1
 62
5
100
AcDbLine
 10
23.139646
 20
84.015151
 30
0.0
 11
23.139646
 21
98.015580
 31
0.0
  0
LINE
  5
16b
100
AcDbEntity
  8
Layer_1
 62
5
100
AcDbLine
 10
42.189573
 20
98.015580
 30
0.0
 11
28.191688
 21
98.015580
 31
0.0
  0
LINE
  5
16c
100
AcDbEntity
  8
Layer_1
 62
5
100
AcDbLine
 10
28.191688
 20
98.015580
 30
0.0
 11
28.191688
 21
84.015151
 31
0.0
  0
LINE
  5
16d
100
AcDbEntity
  8
Layer_1
 62
5
100
AcDbLine
 10
28.191688
 20
84.015151
 30
0.0
 11
42.189573
 21
84.015151
 31
0.0
  0
LINE
  5
16e
100
AcDbEntity
  8
Layer_1
 62
5
100
AcDbLine
 10
42.189573
 20
84.015151
 30
0.0
 11
42.189573
 21
98.015580
 31
0.0
  0
LINE
  5
16f
100
AcDbEntity
  8
Layer_1
 62
5
100
AcDbLine
 10
61.191245
 20
87.916577
 30
0.0
 11
47.193355
 21
87.916577
 31
0.0
  0
LINE
  5
170
100
AcDbEntity
  8
Layer_1
 62
5
100
AcDbLine
 10
47.193355
 20
87.916577
 30
0.0
 11
47.193355
 21
73.916150
 31
0.0
  0
LINE
  5
171
100
AcDbEntity
  8
Layer_1
 62
5
100
AcDbLine
 10
47.193355
 20
73.916150
 30
0.0
 11
61.191245
 21
73.916150
 31
0.0
  0
LINE
  5
172
100
AcDbEntity
  8
Layer_1
 62
5
100
AcDbLine
 10
61.191245
 20
73.916150
 30
0.0
 11
61.191245
 21
87.916577
 31
0.0
  0
LINE
  5
173
100
AcDbEntity
  8
Layer_1
 62
5
100
AcDbLine
 10
61.191245
 20
106.915709
 30
0.0
 11
47.193365
 21
106.915709
 31
0.0
  0
LINE
  5
174
100
AcDbEntity
  8
Layer_1
 62
5
100
AcDbLine
 10
47.193365
 20
106.915709
 30
0.0
 11
47.193365
 21
92.915280
 31
0.0
  0
LINE
  5
175
100
AcDbEntity
  8
Layer_1
 62
5
100
AcDbLine
 10
47.193365
 20
92.915280
 30
0.0
 11
61.191245
 21
92.915280
 31
0.0
  0
LINE
  5
176
100
AcDbEntity
  8
Layer_1
 62
5
100
AcDbLine
 10
61.191245
 20
92.915280
 30
0.0
 11
61.191245
 21
106.915709
 31
0.0
  0
LINE
  5
177
100
AcDbEntity
  8
Layer_1
 62
5
100
AcDbLine
 10
80.190378
 20
109.417600
 30
0.0
 11
66.192493
 21
109.417600
 31
0.0
  0
LINE
  5
178
100
AcDbEntity
  8
Layer_1
 62
5
100
AcDbLine
 10
66.192493
 20
109.417600
 30
0.0
 11
66.192493
 21
95.417169
 31
0.0
  0
LINE
  5
179
100
AcDbEntity
  8
Layer_1
 62
5
100
AcDbLine
 10
66.192493
 20
95.417169
 30
0.0
 11
80.190378
 21
95.417169
 31
0.0
  0
LINE
  5
17a
100
AcDbEntity
  8
Layer_1
 62
5
100
AcDbLine
 10
80.190378
 20
95.417169
 30
0.0
 11
80.190378
 21
109.417600
 31
0.0
  0
LINE
  5
17b
100
AcDbEntity
  8
Layer_1
 62
5
100
AcDbLine
 10
80.190378
 20
90.415928
 30
0.0
 11
66.192493
 21
90.415928
 31
0.0
  0
LINE
  5
17c
100
AcDbEntity
  8
Layer_1
 62
5
100
AcDbLine
 10
66.192493
 20
90.415928
 30
0.0
 11
66.192493
 21
76.415497
 31
0.0
  0
LINE
  5
17d
100
AcDbEntity
  8
Layer_1
 62
5
100
AcDbLine
 10
66.192493
 20
76.415497
 30
0.0
 11
80.190378
 21
76.415497
 31
0.0
  0
LINE
  5
17e
100
AcDbEntity
  8
Layer_1
 62
5
100
AcDbLine
 10
80.190378
 20
76.415497
 30
0.0
 11
80.190378
 21
90.415928
 31
0.0
  0
LINE
  5
17f
100
AcDbEntity
  8
Layer_1
 62
5
100
AcDbLine
 10
99.189510
 20
106.915709
 30
0.0
 11
85.191625
 21
106.915709
 31
0.0
  0
LINE
  5
180
100
AcDbEntity
  8
Layer_1
 62
5
100
AcDbLine
 10
85.191625
 20
106.915709
 30
0.0
 11
85.191625
 21
92.915279
 31
0.0
  0
LINE
  5
181
100
AcDbEntity
  8
Layer_1
 62
5
100
AcDbLine
 10
85.191625
 20
92.915279
 30
0.0
 11
99.189510
 21
92.915279
 31
0.0
  0
LINE
  5
182
100
AcDbEntity
  8
Layer_1
 62
5
100
AcDbLine
 10
99.189510
 20
92.915279
 30
0.0
 11
99.189510
 21
106.915709
 31
0.0
  0
LINE
  5
183
100
AcDbEntity
  8
Layer_1
 62
5
100
AcDbLine
 10
99.189510
 20
87.817517
 30
0.0
 11
85.191625
 21
87.817517
 31
0.0
  0
LINE
  5
184
100
AcDbEntity
  8
Layer_1
 62
5
100
AcDbLine
 10
85.191625
 20
87.817517
 30
0.0
 11
85.191625
 21
73.817090
 31
0.0
  0
LINE
  5
185
100
AcDbEntity
  8
Layer_1
 62
5
100
AcDbLine
 10
85.191625
 20
73.817090
 30
0.0
 11
99.189510
 21
73.817090
 31
0.0
  0
LINE
  5
186
100
AcDbEntity
  8
Layer_1
 62
5
100
AcDbLine
 10
99.189510
 20
73.817090
 30
0.0
 11
99.189510
 21
87.817517
 31
0.0
  0
LINE
  5
187
100
AcDbEntity
  8
Layer_1
 62
5
100
AcDbLine
 10
118.188642
 20
104.515417
 30
0.0
 11
104.190757
 21
104.515417
 31
0.0
  0
LINE
  5
188
100
AcDbEntity
  8
Layer_1
 62
5
100
AcDbLine
 10
104.190757
 20
104.515417
 30
0.0
 11
104.190757
 21
90.514986
 31
0.0
  0
LINE
  5
189
100
AcDbEntity
  8
Layer_1
 62
5
100
AcDbLine
 10
104.190757
 20
90.514986
 30
0.0
 11
118.188642
 21
90.514986
 31
0.0
  0
LINE
  5
18a
100
AcDbEntity
  8
Layer_1
 62
5
100
AcDbLine
 10
118.188642
 20
90.514986
 30
0.0
 11
118.188642
 21
104.515417
 31
0.0
  0
LINE
  5
18b
100
AcDbEntity
  8
Layer_1
 62
5
100
AcDbLine
 10
118.188642
 20
123.517089
 30
0.0
 11
104.190756
 21
123.517089
 31
0.0
  0
LINE
  5
18c
100
AcDbEntity
  8
Layer_1
 62
5
100
AcDbLine
 10
104.190756
 20
123.517089
 30
0.0
 11
104.190756
 21
109.516658
 31
0.0
  0
LINE
  5
18d
100
AcDbEntity
  8
Layer_1
 62
5
100
AcDbLine
 10
104.190756
 20
109.516658
 30
0.0
 11
118.188642
 21
109.516658
 31
0.0
  0
LINE
  5
18e
100
AcDbEntity
  8
Layer_1
 62
5
100
AcDbLine
 10
118.188642
 20
109.516658
 30
0.0
 11
118.188642
 21
123.517089
 31
0.0
  0
LINE
  5
18f
100
AcDbEntity
  8
Layer_1
 62
5
100
AcDbLine
 10
99.189510
 20
126.016441
 30
0.0
 11
85.191624
 21
126.016441
 31
0.0
  0
LINE
  5
190
100
AcDbEntity
  8
Layer_1
 62
5
100
AcDbLine
 10
85.191624
 20
126.016441
 30
0.0
 11
85.191624
 21
112.016009
 31
0.0
  0
LINE
  5
191
100
AcDbEntity
  8
Layer_1
 62
5
100
AcDbLine
 10
85.191624
 20
112.016009
 30
0.0
 11
99.189510
 21
112.016009
 31
0.0
  0
LINE
  5
192
100
AcDbEntity
  8
Layer_1
 62
5
100
AcDbLine
 10
99.189510
 20
112.016009
 30
0.0
 11
99.189510
 21
126.016441
 31
0.0
  0
LINE
  5
193
100
AcDbEntity
  8
Layer_1
 62
5
100
AcDbLine
 10
99.186965
 20
145.015573
 30
0.0
 11
85.189080
 21
145.015573
 31
0.0
  0
LINE
  5
194
100
AcDbEntity
  8
Layer_1
 62
5
100
AcDbLine
 10
85.189080
 20
145.015573
 30
0.0
 11
85.189080
 21
131.015142
 31
0.0
  0
LINE
  5
195
100
AcDbEntity
  8
Layer_1
 62
5
100
AcDbLine
 10
85.189080
 20
131.015142
 30
0.0
 11
99.186965
 21
131.015142
 31
0.0
  0
LINE
  5
196
100
AcDbEntity
  8
Layer_1
 62
5
100
AcDbLine
 10
99.186965
 20
131.015142
 30
0.0
 11
99.186965
 21
145.015573
 31
0.0
  0
LINE
  5
197
100
AcDbEntity
  8
Layer_1
 62
5
100
AcDbLine
 10
118.188642
 20
142.516222
 30
0.0
 11
104.190757
 21
142.516222
 31
0.0
  0
LINE
  5
198
100
AcDbEntity
  8
Layer_1
 62
5
100
AcDbLine
 10
104.190757
 20
142.516222
 30
0.0
 11
104.190757
 21
128.515792
 31
0.0
  0
LINE
  5
199
100
AcDbEntity
  8
Layer_1
 62
5
100
AcDbLine
 10
104.190757
 20
128.515792
 30
0.0
 11
118.188642
 21
128.515792
 31
0.0
  0
LINE
  5
19a
100
AcDbEntity
  8
Layer_1
 62
5
100
AcDbLine
 10
118.188642
 20
128.515792
 30
0.0
 11
118.188642
 21
142.516222
 31
0.0
  0
LINE
  5
19b
100
AcDbEntity
  8
Layer_1
 62
5
100
AcDbLine
 10
80.190378
 20
147.517463
 30
0.0
 11
66.192493
 21
147.517463
 31
0.0
  0
LINE
  5
19c
100
AcDbEntity
  8
Layer_1
 62
5
100
AcDbLine
 10
66.192493
 20
147.517463
 30
0.0
 11
66.192493
 21
133.517033
 31
0.0
  0
LINE
  5
19d
100
AcDbEntity
  8
Layer_1
 62
5
100
AcDbLine
 10
66.192493
 20
133.517033
 30
0.0
 11
80.190378
 21
133.517033
 31
0.0
  0
LINE
  5
19e
100
AcDbEntity
  8
Layer_1
 62
5
100
AcDbLine
 10
80.190378
 20
133.517033
 30
0.0
 11
80.190378
 21
147.517463
 31
0.0
  0
LINE
  5
19f
100
AcDbEntity
  8
Layer_1
 62
5
100
AcDbLine
 10
61.191245
 20
145.117172
 30
0.0
 11
47.193365
 21
145.117172
 31
0.0
  0
LINE
  5
1a0
100
AcDbEntity
  8
Layer_1
 62
5
100
AcDbLine
 10
47.193365
 20
145.117172
 30
0.0
 11
47.193365
 21
131.116741
 31
0.0
  0
LINE
  5
1a1
100
AcDbEntity
  8
Layer_1
 62
5
100
AcDbLine
 10
47.193365
 20
131.116741
 30
0.0
 11
61.191245
 21
131.116741
 31
0.0
  0
LINE
  5
1a2
100
AcDbEntity
  8
Layer_1
 62
5
100
AcDbLine
 10
61.191245
 20
131.116741
 30
0.0
 11
61.191245
 21
145.117172
 31
0.0
  0
LINE
  5
1a3
100
AcDbEntity
  8
Layer_1
 62
5
100
AcDbLine
 10
61.191245
 20
126.016441
 30
0.0
 11
47.193365
 21
126.016441
 31
0.0
  0
LINE
  5
1a4
100
AcDbEntity
  8
Layer_1
 62
5
100
AcDbLine
 10
47.193365
 20
126.016441
 30
0.0
 11
47.193365
 21
112.016010
 31
0.0
  0
LINE
  5
1a5
100
AcDbEntity
  8
Layer_1
 62
5
100
AcDbLine
 10
47.193365
 20
112.016010
 30
0.0
 11
61.191245
 21
112.016010
 31
0.0
  0
LINE
  5
1a6
100
AcDbEntity
  8
Layer_1
 62
5
100
AcDbLine
 10
61.191245
 20
112.016010
 30
0.0
 11
61.191245
 21
126.016441
 31
0.0
  0
LINE
  5
1a7
100
AcDbEntity
  8
Layer_1
 62
5
100
AcDbLine
 10
80.190378
 20
128.416731
 30
0.0
 11
66.192493
 21
128.416731
 31
0.0
  0
LINE
  5
1a8
100
AcDbEntity
  8
Layer_1
 62
5
100
AcDbLine
 10
66.192493
 20
128.416731
 30
0.0
 11
66.192493
 21
114.416301
 31
0.0
  0
LINE
  5
1a9
100
AcDbEntity
  8
Layer_1
 62
5
100
AcDbLine
 10
66.192493
 20
114.416301
 30
0.0
 11
80.190378
 21
114.416301
 31
0.0
  0
LINE
  5
1aa
100
AcDbEntity
  8
Layer_1
 62
5
100
AcDbLine
 10
80.190378
 20
114.416301
 30
0.0
 11
80.190378
 21
128.416731
 31
0.0
  0
LINE
  5
1ab
100
AcDbEntity
  8
Layer_1
 62
5
100
AcDbLine
 10
144.551208
 20
73.768830
 30
0.0
 11
137.550993
 21
61.645455
 31
0.0
  0
LINE
  5
1ac
100
AcDbEntity
  8
Layer_1
 62
5
100
AcDbLine
 10
137.550993
 20
61.645455
 30
0.0
 11
125.427616
 21
68.645668
 31
0.0
  0
LINE
  5
1ad
100
AcDbEntity
  8
Layer_1
 62
5
100
AcDbLine
 10
125.427616
 20
68.645668
 30
0.0
 11
132.427831
 21
80.769044
 31
0.0
  0
LINE
  5
1ae
100
AcDbEntity
  8
Layer_1
 62
5
100
AcDbLine
 10
132.427831
 20
80.769044
 30
0.0
 11
144.551208
 21
73.768830
 31
0.0
  0
LINE
  5
1af
100
AcDbEntity
  8
Layer_1
 62
5
100
AcDbLine
 10
123.268624
 20
79.925767
 30
0.0
 11
110.380710
 21
85.394368
 31
0.0
  0
LINE
  5
1b0
100
AcDbEntity
  8
Layer_1
 62
5
100
AcDbLine
 10
110.380710
 20
85.394368
 30
0.0
 11
104.912109
 21
72.508989
 31
0.0
  0
LINE
  5
1b1
100
AcDbEntity
  8
Layer_1
 62
5
100
AcDbLine
 10
104.912109
 20
72.508989
 30
0.0
 11
117.797484
 21
67.037847
 31
0.0
  0
LINE
  5
1b2
100
AcDbEntity
  8
Layer_1
 62
5
100
AcDbLine
 10
117.797484
 20
67.037847
 30
0.0
 11
123.268624
 21
79.925767
 31
0.0
  0
LINE
  5
1b3
100
AcDbEntity
  8
Layer_1
 62
5
100
AcDbLine
 10
140.158052
 20
104.471275
 30
0.0
 11
124.176843
 21
104.471275
 31
0.0
  0
LINE
  5
1b4
100
AcDbEntity
  8
Layer_1
 62
5
100
AcDbLine
 10
124.176843
 20
104.471275
 30
0.0
 11
124.176843
 21
91.863545
 31
0.0
  0
LINE
  5
1b5
100
AcDbEntity
  8
Layer_1
 62
5
100
AcDbLine
 10
124.176843
 20
91.863545
 30
0.0
 11
140.193297
 21
91.863545
 31
0.0
  0
LINE
  5
1b6
100
AcDbEntity
  8
Layer_1
 62
5
100
AcDbLine
 10
140.193297
 20
91.863545
 30
0.0
 11
140.158052
 21
104.471275
 31
0.0
  0
SPLINE
  5
1b7
100
AcDbEntity
  8
Layer_1
 62
5
100
AcDbSpline
 70
8
 71
3
 72
8
 73
4
 74
0
 40
0
 40
0
 40
0
 40
0
 40
1
 40
1
 40
1
 40
1
 10
24.910447
 20
100.337806
 30
0.0
 10
24.910447
 20
101.026781
 30
0.0
 10
25.469957
 20
101.586288
 30
0.0
 10
26.158927
 20
101.586288
 30
0.0
  0
SPLINE
  5
1b8
100
AcDbEntity
  8
Layer_1
 62
5
100
AcDbSpline
 70
8
 71
3
 72
8
 73
4
 74
0
 40
0
 40
0
 40
0
 40
0
 40
1
 40
1
 40
1
 40
1
 10
26.158927
 20
101.586288
 30
0.0
 10
26.847908
 20
101.586288
 30
0.0
 10
27.407058
 20
101.026781
 30
0.0
 10
27.407058
 20
100.337806
 30
0.0
  0
SPLINE
  5
1b9
100
AcDbEntity
  8
Layer_1
 62
5
100
AcDbSpline
 70
8
 71
3
 72
8
 73
4
 74
0
 40
0
 40
0
 40
0
 40
0
 40
1
 40
1
 40
1
 40
1
 10
27.407058
 20
100.337806
 30
0.0
 10
27.407058
 20
99.648831
 30
0.0
 10
26.847908
 20
99.089326
 30
0.0
 10
26.158927
 20
99.089326
 30
0.0
  0
SPLINE
  5
1ba
100
AcDbEntity
  8
Layer_1
 62
5
100
AcDbSpline
 70
8
 71
3
 72
8
 73
4
 74
0
 40
0
 40
0
 40
0
 40
0
 40
1
 40
1
 40
1
 40
1
 10
26.158927
 20
99.089326
 30
0.0
 10
25.469957
 20
99.089326
 30
0.0
 10
24.910447
 20
99.648831
 30
0.0
 10
24.910447
 20
100.337806
 30
0.0
  0
LINE
  5
1bb
100
AcDbEntity
  8
Layer_1
 62
5
100
AcDbLine
 10
24.910447
 20
100.337806
 30
0.0
 11
24.910447
 21
100.337806
 31
0.0
  0
SPLINE
  5
1bc
100
AcDbEntity
  8
Layer_1
 62
5
100
AcDbSpline
 70
8
 71
3
 72
8
 73
4
 74
0
 40
0
 40
0
 40
0
 40
0
 40
1
 40
1
 40
1
 40
1
 10
24.910447
 20
138.637209
 30
0.0
 10
24.910447
 20
139.326184
 30
0.0
 10
25.469957
 20
139.885691
 30
0.0
 10
26.158927
 20
139.885691
 30
0.0
  0
SPLINE
  5
1bd
100
AcDbEntity
  8
Layer_1
 62
5
100
AcDbSpline
 70
8
 71
3
 72
8
 73
4
 74
0
 40
0
 40
0
 40
0
 40
0
 40
1
 40
1
 40
1
 40
1
 10
26.158927
 20
139.885691
 30
0.0
 10
26.847908
 20
139.885691
 30
0.0
 10
27.407058
 20
139.326184
 30
0.0
 10
27.407058
 20
138.637209
 30
0.0
  0
SPLINE
  5
1be
100
AcDbEntity
  8
Layer_1
 62
5
100
AcDbSpline
 70
8
 71
3
 72
8
 73
4
 74
0
 40
0
 40
0
 40
0
 40
0
 40
1
 40
1
 40
1
 40
1
 10
27.407058
 20
138.637209
 30
0.0
 10
27.407058
 20
137.948234
 30
0.0
 10
26.847908
 20
137.388729
 30
0.0
 10
26.158927
 20
137.388729
 30
0.0
  0
SPLINE
  5
1bf
100
AcDbEntity
  8
Layer_1
 62
5
100
AcDbSpline
 70
8
 71
3
 72
8
 73
4
 74
0
 40
0
 40
0
 40
0
 40
0
 40
1
 40
1
 40
1
 40
1
 10
26.158927
 20
137.388729
 30
0.0
 10
25.469957
 20
137.388729
 30
0.0
 10
24.910447
 20
137.948234
 30
0.0
 10
24.910447
 20
138.637209
 30
0.0
  0
LINE
  5
1c0
100
AcDbEntity
  8
Layer_1
 62
5
100
AcDbLine
 10
24.910447
 20
138.637209
 30
0.0
 11
24.910447
 21
138.637209
 31
0.0
  0
SPLINE
  5
1c1
100
AcDbEntity
  8
Layer_1
 62
5
100
AcDbSpline
 70
8
 71
3
 72
8
 73
4
 74
0
 40
0
 40
0
 40
0
 40
0
 40
1
 40
1
 40
1
 40
1
 10
101.408930
 20
107.336012
 30
0.0
 10
101.408930
 20
108.024992
 30
0.0
 10
101.968436
 20
108.584492
 30
0.0
 10
102.657411
 20
108.584492
 30
0.0
  0
SPLINE
  5
1c2
100
AcDbEntity
  8
Layer_1
 62
5
100
AcDbSpline
 70
8
 71
3
 72
8
 73
4
 74
0
 40
0
 40
0
 40
0
 40
0
 40
1
 40
1
 40
1
 40
1
 10
102.657411
 20
108.584492
 30
0.0
 10
103.346387
 20
108.584492
 30
0.0
 10
103.905540
 20
108.024992
 30
0.0
 10
103.905540
 20
107.336012
 30
0.0
  0
SPLINE
  5
1c3
100
AcDbEntity
  8
Layer_1
 62
5
100
AcDbSpline
 70
8
 71
3
 72
8
 73
4
 74
0
 40
0
 40
0
 40
0
 40
0
 40
1
 40
1
 40
1
 40
1
 10
103.905540
 20
107.336012
 30
0.0
 10
103.905540
 20
106.647042
 30
0.0
 10
103.346387
 20
106.087531
 30
0.0
 10
102.657411
 20
106.087531
 30
0.0
  0
SPLINE
  5
1c4
100
AcDbEntity
  8
Layer_1
 62
5
100
AcDbSpline
 70
8
 71
3
 72
8
 73
4
 74
0
 40
0
 40
0
 40
0
 40
0
 40
1
 40
1
 40
1
 40
1
 10
102.657411
 20
106.087531
 30
0.0
 10
101.968436
 20
106.087531
 30
0.0
 10
101.408930
 20
106.647042
 30
0.0
 10
101.408930
 20
107.336012
 30
0.0
  0
LINE
  5
1c5
100
AcDbEntity
  8
Layer_1
 62
5
100
AcDbLine
 10
101.408930
 20
107.336012
 30
0.0
 11
101.408930
 21
107.336012
 31
0.0
  0
SPLINE
  5
1c6
100
AcDbEntity
  8
Layer_1
 62
5
100
AcDbSpline
 70
8
 71
3
 72
8
 73
4
 74
0
 40
0
 40
0
 40
0
 40
0
 40
1
 40
1
 40
1
 40
1
 10
127.157214
 20
83.873957
 30
0.0
 10
127.157214
 20
84.562937
 30
0.0
 10
127.716721
 20
85.122448
 30
0.0
 10
128.405696
 20
85.122448
 30
0.0
  0
SPLINE
  5
1c7
100
AcDbEntity
  8
Layer_1
 62
5
100
AcDbSpline
 70
8
 71
3
 72
8
 73
4
 74
0
 40
0
 40
0
 40
0
 40
0
 40
1
 40
1
 40
1
 40
1
 10
128.405696
 20
85.122448
 30
0.0
 10
129.094671
 20
85.122448
 30
0.0
 10
129.653824
 20
84.562937
 30
0.0
 10
129.653824
 20
83.873957
 30
0.0
  0
SPLINE
  5
1c8
100
AcDbEntity
  8
Layer_1
 62
5
100
AcDbSpline
 70
8
 71
3
 72
8
 73
4
 74
0
 40
0
 40
0
 40
0
 40
0
 40
1
 40
1
 40
1
 40
1
 10
129.653824
 20
83.873957
 30
0.0
 10
129.653824
 20
83.184987
 30
0.0
 10
129.094671
 20
82.625477
 30
0.0
 10
128.405696
 20
82.625477
 30
0.0
  0
SPLINE
  5
1c9
100
AcDbEntity
  8
Layer_1
 62
5
100
AcDbSpline
 70
8
 71
3
 72
8
 73
4
 74
0
 40
0
 40
0
 40
0
 40
0
 40
1
 40
1
 40
1
 40
1
 10
128.405696
 20
82.625477
 30
0.0
 10
127.716721
 20
82.625477
 30
0.0
 10
127.157214
 20
83.184987
 30
0.0
 10
127.157214
 20
83.873957
 30
0.0
  0
LINE
  5
1ca
100
AcDbEntity
  8
Layer_1
 62
5
100
AcDbLine
 10
127.157214
 20
83.873957
 30
0.0
 11
127.157214
 21
83.873957
 31
0.0
  0
SPLINE
  5
1cb
100
AcDbEntity
  8
Layer_1
 62
5
100
AcDbSpline
 70
8
 71
3
 72
8
 73
4
 74
0
 40
0
 40
0
 40
0
 40
0
 40
1
 40
1
 40
1
 40
1
 10
101.410200
 20
145.247556
 30
0.0
 10
101.410200
 20
145.936536
 30
0.0
 10
101.969706
 20
146.496036
 30
0.0
 10
102.658681
 20
146.496036
 30
0.0
  0
SPLINE
  5
1cc
100
AcDbEntity
  8
Layer_1
 62
5
100
AcDbSpline
 70
8
 71
3
 72
8
 73
4
 74
0
 40
0
 40
0
 40
0
 40
0
 40
1
 40
1
 40
1
 40
1
 10
102.658681
 20
146.496036
 30
0.0
 10
103.347657
 20
146.496036
 30
0.0
 10
103.906810
 20
145.936536
 30
0.0
 10
103.906810
 20
145.247556
 30
0.0
  0
SPLINE
  5
1cd
100
AcDbEntity
  8
Layer_1
 62
5
100
AcDbSpline
 70
8
 71
3
 72
8
 73
4
 74
0
 40
0
 40
0
 40
0
 40
0
 40
1
 40
1
 40
1
 40
1
 10
103.906810
 20
145.247556
 30
0.0
 10
103.906810
 20
144.558585
 30
0.0
 10
103.347657
 20
143.999075
 30
0.0
 10
102.658681
 20
143.999075
 30
0.0
  0
SPLINE
  5
1ce
100
AcDbEntity
  8
Layer_1
 62
5
100
AcDbSpline
 70
8
 71
3
 72
8
 73
4
 74
0
 40
0
 40
0
 40
0
 40
0
 40
1
 40
1
 40
1
 40
1
 10
102.658681
 20
143.999075
 30
0.0
 10
101.969706
 20
143.999075
 30
0.0
 10
101.410200
 20
144.558585
 30
0.0
 10
101.410200
 20
145.247556
 30
0.0
  0
LINE
  5
1cf
100
AcDbEntity
  8
Layer_1
 62
5
100
AcDbLine
 10
101.410200
 20
145.247556
 30
0.0
 11
101.410200
 21
145.247556
 31
0.0
  0
SPLINE
  5
1d0
100
AcDbEntity
  8
Layer_1
 62
5
100
AcDbSpline
 70
8
 71
3
 72
8
 73
4
 74
0
 40
0
 40
0
 40
0
 40
0
 40
1
 40
1
 40
1
 40
1
 10
145.873162
 20
114.687221
 30
0.0
 10
145.873162
 20
115.376195
 30
0.0
 10
146.432666
 20
115.935700
 30
0.0
 10
147.121641
 20
115.935700
 30
0.0
  0
SPLINE
  5
1d1
100
AcDbEntity
  8
Layer_1
 62
5
100
AcDbSpline
 70
8
 71
3
 72
8
 73
4
 74
0
 40
0
 40
0
 40
0
 40
0
 40
1
 40
1
 40
1
 40
1
 10
147.121641
 20
115.935700
 30
0.0
 10
147.810615
 20
115.935700
 30
0.0
 10
148.369767
 20
115.376195
 30
0.0
 10
148.369767
 20
114.687221
 30
0.0
  0
SPLINE
  5
1d2
100
AcDbEntity
  8
Layer_1
 62
5
100
AcDbSpline
 70
8
 71
3
 72
8
 73
4
 74
0
 40
0
 40
0
 40
0
 40
0
 40
1
 40
1
 40
1
 40
1
 10
148.369767
 20
114.687221
 30
0.0
 10
148.369767
 20
113.998247
 30
0.0
 10
147.810615
 20
113.438742
 30
0.0
 10
147.121641
 20
113.438742
 30
0.0
  0
SPLINE
  5
1d3
100
AcDbEntity
  8
Layer_1
 62
5
100
AcDbSpline
 70
8
 71
3
 72
8
 73
4
 74
0
 40
0
 40
0
 40
0
 40
0
 40
1
 40
1
 40
1
 40
1
 10
147.121641
 20
113.438742
 30
0.0
 10
146.432666
 20
113.438742
 30
0.0
 10
145.873162
 20
113.998247
 30
0.0
 10
145.873162
 20
114.687221
 30
0.0
  0
LINE
  5
1d4
100
AcDbEntity
  8
Layer_1
 62
5
100
AcDbLine
 10
145.873162
 20
114.687221
 30
0.0
 11
145.873162
 21
114.687221
 31
0.0
  0
SPLINE
  5
1d5
100
AcDbEntity
  8
Layer_1
 62
5
100
AcDbSpline
 70
8
 71
3
 72
8
 73
4
 74
0
 40
0
 40
0
 40
0
 40
0
 40
1
 40
1
 40
1
 40
1
 10
135.873195
 20
114.703224
 30
0.0
 10
135.873195
 20
115.392198
 30
0.0
 10
136.432699
 20
115.951703
 30
0.0
 10
137.121673
 20
115.951703
 30
0.0
  0
SPLINE
  5
1d6
100
AcDbEntity
  8
Layer_1
 62
5
100
AcDbSpline
 70
8
 71
3
 72
8
 73
4
 74
0
 40
0
 40
0
 40
0
 40
0
 40
1
 40
1
 40
1
 40
1
 10
137.121673
 20
115.951703
 30
0.0
 10
137.810647
 20
115.951703
 30
0.0
 10
138.369800
 20
115.392198
 30
0.0
 10
138.369800
 20
114.703224
 30
0.0
  0
SPLINE
  5
1d7
100
AcDbEntity
  8
Layer_1
 62
5
100
AcDbSpline
 70
8
 71
3
 72
8
 73
4
 74
0
 40
0
 40
0
 40
0
 40
0
 40
1
 40
1
 40
1
 40
1
 10
138.369800
 20
114.703224
 30
0.0
 10
138.369800
 20
114.014250
 30
0.0
 10
137.810647
 20
113.454745
 30
0.0
 10
137.121673
 20
113.454745
 30
0.0
  0
SPLINE
  5
1d8
100
AcDbEntity
  8
Layer_1
 62
5
100
AcDbSpline
 70
8
 71
3
 72
8
 73
4
 74
0
 40
0
 40
0
 40
0
 40
0
 40
1
 40
1
 40
1
 40
1
 10
137.121673
 20
113.454745
 30
0.0
 10
136.432699
 20
113.454745
 30
0.0
 10
135.873195
 20
114.014250
 30
0.0
 10
135.873195
 20
114.703224
 30
0.0
  0
LINE
  5
1d9
100
AcDbEntity
  8
Layer_1
 62
5
100
AcDbLine
 10
135.873195
 20
114.703224
 30
0.0
 11
135.873195
 21
114.703224
 31
0.0
  0
LINE
  5
1da
100
AcDbEntity
  8
Layer_1
 62
5
100
AcDbLine
 10
150.523606
 20
169.407944
 30
0.0
 11
133.553425
 21
169.407944
 31
0.0
  0
SPLINE
  5
1db
100
AcDbEntity
  8
Layer_1
 62
5
100
AcDbSpline
 70
8
 71
3
 72
8
 73
4
 74
0
 40
0
 40
0
 40
0
 40
0
 40
1
 40
1
 40
1
 40
1
 10
133.553425
 20
169.407944
 30
0.0
 10
133.022994
 20
169.407944
 30
0.0
 10
132.514288
 20
169.197231
 30
0.0
 10
132.139216
 20
168.822159
 30
0.0
  0
SPLINE
  5
1dc
100
AcDbEntity
  8
Layer_1
 62
5
100
AcDbSpline
 70
8
 71
3
 72
8
 73
4
 74
0
 40
0
 40
0
 40
0
 40
0
 40
1
 40
1
 40
1
 40
1
 10
132.139216
 20
168.822159
 30
0.0
 10
131.764144
 20
168.447088
 30
0.0
 10
131.553431
 20
167.938381
 30
0.0
 10
131.553431
 20
167.407950
 30
0.0
  0
LINE
  5
1dd
100
AcDbEntity
  8
Layer_1
 62
5
100
AcDbLine
 10
131.553431
 20
167.407950
 30
0.0
 11
131.553431
 21
113.181648
 31
0.0
  0
SPLINE
  5
1de
100
AcDbEntity
  8
Layer_1
 62
5
100
AcDbSpline
 70
8
 71
3
 72
8
 73
4
 74
0
 40
0
 40
0
 40
0
 40
0
 40
1
 40
1
 40
1
 40
1
 10
131.553431
 20
113.181648
 30
0.0
 10
131.553431
 20
112.651217
 30
0.0
 10
131.764144
 20
112.142510
 30
0.0
 10
132.139216
 20
111.767439
 30
0.0
  0
SPLINE
  5
1df
100
AcDbEntity
  8
Layer_1
 62
5
100
AcDbSpline
 70
8
 71
3
 72
8
 73
4
 74
0
 40
0
 40
0
 40
0
 40
0
 40
1
 40
1
 40
1
 40
1
 10
132.139216
 20
111.767439
 30
0.0
 10
132.514288
 20
111.392367
 30
0.0
 10
133.022994
 20
111.181654
 30
0.0
 10
133.553425
 20
111.181654
 30
0.0
  0
LINE
  5
1e0
100
AcDbEntity
  8
Layer_1
 62
5
100
AcDbLine
 10
133.553425
 20
111.181654
 30
0.0
 11
150.523606
 21
111.181654
 31
0.0
  0
SPLINE
  5
1e1
100
AcDbEntity
  8
Layer_1
 62
5
100
AcDbSpline
 70
8
 71
3
 72
8
 73
4
 74
0
 40
0
 40
0
 40
0
 40
0
 40
1
 40
1
 40
1
 40
1
 10
150.523606
 20
111.181654
 30
0.0
 10
151.054038
 20
111.181654
 30
0.0
 10
151.562744
 20
111.392367
 30
0.0
 10
151.937816
 20
111.767439
 30
0.0
  0
SPLINE
  5
1e2
100
AcDbEntity
  8
Layer_1
 62
5
100
AcDbSpline
 70
8
 71
3
 72
8
 73
4
 74
0
 40
0
 40
0
 40
0
 40
0
 40
1
 40
1
 40
1
 40
1
 10
151.937816
 20
111.767439
 30
0.0
 10
152.312887
 20
112.142510
 30
0.0
 10
152.523601
 20
112.651217
 30
0.0
 10
152.523601
 20
113.181648
 30
0.0
  0
LINE
  5
1e3
100
AcDbEntity
  8
Layer_1
 62
5
100
AcDbLine
 10
152.523601
 20
113.181648
 30
0.0
 11
152.523601
 21
167.407950
 31
0.0
  0
SPLINE
  5
1e4
100
AcDbEntity
  8
Layer_1
 62
5
100
AcDbSpline
 70
8
 71
3
 72
8
 73
4
 74
0
 40
0
 40
0
 40
0
 40
0
 40
1
 40
1
 40
1
 40
1
 10
152.523601
 20
167.407950
 30
0.0
 10
152.523601
 20
167.938381
 30
0.0
 10
152.312887
 20
168.447088
 30
0.0
 10
151.937816
 20
168.822159
 30
0.0
  0
SPLINE
  5
1e5
100
AcDbEntity
  8
Layer_1
 62
5
100
AcDbSpline
 70
8
 71
3
 72
8
 73
4
 74
0
 40
0
 40
0
 40
0
 40
0
 40
1
 40
1
 40
1
 40
1
 10
151.937816
 20
168.822159
 30
0.0
 10
151.562744
 20
169.197231
 30
0.0
 10
151.054038
 20
169.407944
 30
0.0
 10
150.523606
 20
169.407944
 30
0.0
  0
LINE
  5
1e6
100
AcDbEntity
  8
Layer_1
 62
5
100
AcDbLine
 10
150.523606
 20
169.407944
 30
0.0
 11
150.523606
 21
169.407944
 31
0.0
  0
ENDSEC
  0
SECTION
  2
OBJECTS
  0
DICTIONARY
  5
C
330
0
100
AcDbDictionary
  3
ACAD_GROUP
350
D
  3
ACAD_MLINESTYLE
350
17
  0
DICTIONARY
  5
D
330
C
100
AcDbDictionary
  0
DICTIONARY
  5
1A
330
C
100
AcDbDictionary
  0
DICTIONARY
  5
17
330
C
100
AcDbDictionary
  3
STANDARD
350
18
  0
DICTIONARY
  5
19
330
C
100
AcDbDictionary
  0
ENDSEC
  0
EOF
